<?xml version="1.0" encoding="utf-8"?>
<!-- Generator: Adobe Illustrator 23.0.0, SVG Export Plug-In . SVG Version: 6.00 Build 0)  -->
<svg version="1.1" id="Layer_1" xmlns="http://www.w3.org/2000/svg" xmlns:xlink="http://www.w3.org/1999/xlink" x="0px" y="0px"
	 viewBox="0 0 181 30.2" style="enable-background:new 0 0 181 30.2;" xml:space="preserve">
<style type="text/css">
	.st0{fill:url(#SVGID_1_);}
	.st1{fill:url(#SVGID_2_);}
	.st2{fill:url(#SVGID_3_);}
	.st3{fill:url(#SVGID_4_);}
	.st4{fill:url(#SVGID_5_);}
	.st5{fill:url(#SVGID_6_);}
	.st6{fill:url(#SVGID_7_);}
	.st7{fill:url(#SVGID_8_);}
	.st8{fill:url(#SVGID_9_);}
	.st9{fill:url(#SVGID_10_);}
	.st10{fill:url(#SVGID_11_);}
	.st11{fill:url(#SVGID_12_);}
	.st12{fill:url(#SVGID_13_);}
	.st13{fill:url(#SVGID_14_);}
	.st14{fill:url(#SVGID_15_);}
	.st15{fill:url(#SVGID_16_);}
	.st16{fill:url(#SVGID_17_);}
	.st17{fill:url(#SVGID_18_);}
	.st18{fill:url(#SVGID_19_);}
	.st19{fill:url(#SVGID_20_);}
	.st20{fill:url(#SVGID_21_);}
	.st21{fill:url(#SVGID_22_);}
</style>
<g>
	<linearGradient id="SVGID_1_" gradientUnits="userSpaceOnUse" x1="174.4854" y1="18.0413" x2="263.9144" y2="16.6697">
		<stop  offset="0" style="stop-color:#095663"/>
		<stop  offset="1" style="stop-color:#308089"/>
	</linearGradient>
	<path class="st0" d="M101.4,19.2v5c0,0.7-0.6,1.3-1.3,1.3c-0.7,0-1.2-0.6-1.2-1.3v-5c0-2.1-1.7-3.8-3.8-3.8c-2.1,0-3.8,1.7-3.8,3.8
		v5c0,0.7-0.6,1.3-1.3,1.3c-0.7,0-1.2-0.6-1.2-1.3v-5c0-3.5,2.8-6.3,6.3-6.3S101.4,15.7,101.4,19.2z"/>
	<linearGradient id="SVGID_2_" gradientUnits="userSpaceOnUse" x1="174.492" y1="18.4726" x2="263.921" y2="17.101">
		<stop  offset="0" style="stop-color:#095663"/>
		<stop  offset="1" style="stop-color:#308089"/>
	</linearGradient>
	<path class="st1" d="M129.5,19.2v5c0,0.7-0.6,1.3-1.3,1.3c-0.7,0-1.2-0.6-1.2-1.3v-5c0-2.1-1.7-3.8-3.8-3.8s-3.8,1.7-3.8,3.8v5
		c0,0.7-0.6,1.3-1.3,1.3c-0.7,0-1.2-0.6-1.2-1.3v-5c0-3.5,2.8-6.3,6.3-6.3C126.7,12.9,129.5,15.7,129.5,19.2z"/>
	<linearGradient id="SVGID_3_" gradientUnits="userSpaceOnUse" x1="174.4963" y1="18.7528" x2="263.9253" y2="17.3812">
		<stop  offset="0" style="stop-color:#095663"/>
		<stop  offset="1" style="stop-color:#308089"/>
	</linearGradient>
	<path class="st2" d="M146.1,14.2c0,0.7-0.6,1.3-1.3,1.3c-2.1,0-3.8,1.7-3.8,3.8v5c0,0.7-0.6,1.3-1.2,1.3c-0.7,0-1.3-0.6-1.3-1.3v-5
		c0-3.5,2.8-6.3,6.3-6.3C145.6,12.9,146.1,13.5,146.1,14.2z"/>
	<linearGradient id="SVGID_4_" gradientUnits="userSpaceOnUse" x1="174.4595" y1="16.3574" x2="263.8885" y2="14.9858">
		<stop  offset="0" style="stop-color:#095663"/>
		<stop  offset="1" style="stop-color:#308089"/>
	</linearGradient>
	<path class="st3" d="M148,10.1c-0.2-0.2-0.4-0.6-0.4-0.9c0-0.3,0.2-0.7,0.4-0.9s0.6-0.4,0.9-0.4s0.7,0.2,0.9,0.4s0.4,0.6,0.4,0.9
		c0,0.3-0.1,0.7-0.4,0.9c-0.2,0.2-0.6,0.4-0.9,0.4S148.2,10.3,148,10.1z M147.6,24.3V14.2c0-0.7,0.6-1.2,1.3-1.2
		c0.7,0,1.2,0.6,1.2,1.2v10.1c0,0.7-0.6,1.3-1.2,1.3C148.2,25.5,147.6,25,147.6,24.3z"/>
	<linearGradient id="SVGID_5_" gradientUnits="userSpaceOnUse" x1="174.452" y1="15.868" x2="263.881" y2="14.4964">
		<stop  offset="0" style="stop-color:#095663"/>
		<stop  offset="1" style="stop-color:#308089"/>
	</linearGradient>
	<path class="st4" d="M160.1,7.6c-0.2-0.7-1-1-1.6-0.8c-0.9,0.3-1.7,0.8-2.4,1.5c-1.2,1.2-1.9,2.8-1.8,4.6H153
		c-0.7,0-1.2,0.6-1.2,1.2c0,0.7,0.6,1.3,1.2,1.3h1.4v8.9c0,0.7,0.6,1.3,1.2,1.3c0.7,0,1.3-0.6,1.3-1.3v-8.9v-2.5
		c0-1.1,0.4-2.1,1.1-2.9c0.4-0.4,0.9-0.7,1.4-0.9C160,8.9,160.3,8.2,160.1,7.6z"/>
	<linearGradient id="SVGID_6_" gradientUnits="userSpaceOnUse" x1="174.4564" y1="16.1514" x2="263.8854" y2="14.7798">
		<stop  offset="0" style="stop-color:#095663"/>
		<stop  offset="1" style="stop-color:#308089"/>
	</linearGradient>
	<path class="st5" d="M175.1,12.9v-5c0-0.7,0.6-1.2,1.2-1.2c0.7,0,1.3,0.6,1.3,1.2v5h1.8c0.7,0,1.3,0.6,1.3,1.2
		c0,0.7-0.6,1.3-1.3,1.3h-1.8v8.9c0,0.7-0.6,1.3-1.3,1.3c-0.7,0-1.2-0.6-1.2-1.3v-8.9V12.9z"/>
	<linearGradient id="SVGID_7_" gradientUnits="userSpaceOnUse" x1="174.4789" y1="17.6231" x2="263.908" y2="16.2514">
		<stop  offset="0" style="stop-color:#095663"/>
		<stop  offset="1" style="stop-color:#308089"/>
	</linearGradient>
	<path class="st6" d="M67.1,13c-3.7,0-6.7,3.1-6.4,6.9c0.2,3.3,3.1,5.7,6.4,5.7c1,0,1.8-0.2,2.6-0.6v0c0-1.1-1-2.1-2.1-1.9
		c-0.2,0-0.4,0-0.6,0c-2,0-3.7-1.5-3.8-3.5c-0.2-2.2,1.7-4.1,3.9-4.1c1.7,0,3,1.1,3.5,2.7c0.1,0.4,0.2,0.8,0.2,1.2v4.9
		c0,0.7,0.7,1.3,1.2,1.3c0.7,0,1.3-0.5,1.3-1.3v-4.9C73.2,15.9,70.5,13,67.1,13z"/>
	<linearGradient id="SVGID_8_" gradientUnits="userSpaceOnUse" x1="174.4888" y1="18.2698" x2="263.9179" y2="16.8982">
		<stop  offset="0" style="stop-color:#095663"/>
		<stop  offset="1" style="stop-color:#308089"/>
	</linearGradient>
	<path class="st7" d="M109.3,13c-3.7,0-6.7,3.1-6.4,6.9c0.2,3.3,3.1,5.7,6.4,5.7c1,0,1.8-0.2,2.6-0.6v0c0-1.1-1-2.1-2.1-1.9
		c-0.2,0-0.4,0-0.6,0c-2,0-3.7-1.5-3.8-3.5c-0.2-2.2,1.7-4.1,3.9-4.1c1.7,0,3,1.1,3.5,2.7c0.1,0.4,0.2,0.8,0.2,1.2v4.9
		c0,0.7,0.7,1.3,1.2,1.3c0.7,0,1.3-0.5,1.3-1.3v-4.9C115.4,15.9,112.7,13,109.3,13z"/>
	<linearGradient id="SVGID_9_" gradientUnits="userSpaceOnUse" x1="174.5022" y1="19.1395" x2="263.9312" y2="17.7679">
		<stop  offset="0" style="stop-color:#095663"/>
		<stop  offset="1" style="stop-color:#308089"/>
	</linearGradient>
	<path class="st8" d="M166,13c-3.7,0-6.7,3.1-6.4,6.9c0.2,3.3,3.1,5.7,6.4,5.7c1,0,1.8-0.2,2.6-0.6v0c0-1.1-1-2.1-2.1-1.9
		c-0.2,0-0.4,0-0.6,0c-2,0-3.7-1.5-3.8-3.5c-0.2-2.2,1.7-4.1,3.9-4.1c1.7,0,3,1.1,3.5,2.7c0.1,0.4,0.2,0.8,0.2,1.2v4.9
		c0,0.7,0.7,1.3,1.2,1.3c0.7,0,1.3-0.5,1.3-1.3v-4.9C172.1,15.9,169.4,13,166,13z"/>
	<linearGradient id="SVGID_10_" gradientUnits="userSpaceOnUse" x1="174.4338" y1="14.6788" x2="263.8628" y2="13.3072">
		<stop  offset="0" style="stop-color:#095663"/>
		<stop  offset="1" style="stop-color:#308089"/>
	</linearGradient>
	<path class="st9" d="M86.2,6.7c-0.7,0-1.3,0.6-1.3,1.3v3.7v2.5v5v0v0.4h0C84.7,21.5,83,23,81.1,23c-2.4,0-4.2-2.2-3.7-4.6
		c0.3-1.6,1.7-2.9,3.4-3c0.3,0,0.7,0,1,0c1.1,0.2,2.2-0.6,2.2-1.8v-0.1c-1.1-0.6-2.5-0.8-3.9-0.6c-2.8,0.5-4.9,2.8-5.2,5.6
		c-0.4,3.7,2.6,6.9,6.3,6.9c3.5,0,6.3-2.8,6.3-6.3v0V7.9C87.4,7.2,86.8,6.7,86.2,6.7z"/>
	<linearGradient id="SVGID_11_" gradientUnits="userSpaceOnUse" x1="174.4846" y1="17.9913" x2="263.9136" y2="16.6196">
		<stop  offset="0" style="stop-color:#095663"/>
		<stop  offset="1" style="stop-color:#308089"/>
	</linearGradient>
	<path class="st10" d="M84.9,19.6v-0.4C84.9,19.3,84.9,19.4,84.9,19.6L84.9,19.6z"/>
</g>
<linearGradient id="SVGID_12_" gradientUnits="userSpaceOnUse" x1="38.8865" y1="17.921" x2="45.2726" y2="29.8124">
	<stop  offset="0" style="stop-color:#095663"/>
	<stop  offset="1" style="stop-color:#308089"/>
</linearGradient>
<path class="st11" d="M35.9,20.2v4.9v0.4h3.1c0.5,0,1,0,1.5-0.1c1.3,2.4,3.7,4.1,6.6,4.4c1.5,0.1,2.9-0.1,4.2-0.7L48,21.8
	c0,0-2.3-4.6-9-4.7C37.3,17.1,35.9,18.5,35.9,20.2z"/>
<linearGradient id="SVGID_13_" gradientUnits="userSpaceOnUse" x1="30.7343" y1="13.0031" x2="36.9299" y2="12.7376">
	<stop  offset="0" style="stop-color:#095663"/>
	<stop  offset="1" style="stop-color:#308089"/>
</linearGradient>
<path class="st12" d="M40.9,0.5c-0.6-0.1-1.2-0.1-1.8-0.1c-1.5,0-2.9,0.3-4.2,0.7c-3.6,1.3-6.4,4.1-7.7,7.7c0,0,0,0,0,0
	c-0.5,1.3-0.7,2.7-0.7,4.2v4.2v8.4c4.6,0,8.4-3.7,8.4-8.4v-1V13c0-0.3,0-0.5,0.1-0.8l0,0C35,12.2,34.9,2.2,40.9,0.5z"/>
<linearGradient id="SVGID_14_" gradientUnits="userSpaceOnUse" x1="37.3745" y1="9.1027" x2="37.421" y2="9.1027">
	<stop  offset="0" style="stop-color:#095663"/>
	<stop  offset="1" style="stop-color:#308089"/>
</linearGradient>
<path class="st13" d="M37.4,9.1C37.4,9.1,37.4,9.1,37.4,9.1C37.4,9.1,37.4,9.1,37.4,9.1L37.4,9.1z"/>
<linearGradient id="SVGID_15_" gradientUnits="userSpaceOnUse" x1="37.421" y1="8.9234" x2="38.6697" y2="8.9234">
	<stop  offset="0" style="stop-color:#095663"/>
	<stop  offset="1" style="stop-color:#308089"/>
</linearGradient>
<path class="st14" d="M38.7,8.8c-0.4,0-0.9,0.2-1.2,0.3C37.6,9,38,8.9,38.7,8.8z"/>
<linearGradient id="SVGID_16_" gradientUnits="userSpaceOnUse" x1="35.2832" y1="4.9514" x2="48.029" y2="10.5277">
	<stop  offset="0" style="stop-color:#FF082C"/>
	<stop  offset="3.703256e-02" style="stop-color:#D11736"/>
	<stop  offset="8.022540e-02" style="stop-color:#A22541"/>
	<stop  offset="0.1262" style="stop-color:#79324A"/>
	<stop  offset="0.1742" style="stop-color:#563D52"/>
	<stop  offset="0.2249" style="stop-color:#3A4658"/>
	<stop  offset="0.279" style="stop-color:#244D5D"/>
	<stop  offset="0.3384" style="stop-color:#155260"/>
	<stop  offset="0.4069" style="stop-color:#0C5562"/>
	<stop  offset="0.5056" style="stop-color:#095663"/>
	<stop  offset="1" style="stop-color:#308089"/>
</linearGradient>
<path class="st15" d="M50.9,8.7c-1.5-4.3-5.4-7.6-10.1-8.2C34.9,2.2,35,12.2,35,12.2l0,0c0.3-1.4,1.2-2.5,2.4-3.1l0,0c0,0,0,0,0,0
	c0.4-0.2,0.8-0.3,1.2-0.3c2.7-0.5,9-0.7,12.2,8.3c0.5-1.3,0.7-2.7,0.7-4.2S51.4,10,50.9,8.7z"/>
<linearGradient id="SVGID_17_" gradientUnits="userSpaceOnUse" x1="40.1032" y1="8.6097" x2="49.3966" y2="18.8766">
	<stop  offset="0" style="stop-color:#095663"/>
	<stop  offset="1" style="stop-color:#308089"/>
</linearGradient>
<path class="st16" d="M48,21.8c1.3-1.3,2.3-2.9,2.9-4.7c-3.3-9-9.5-8.9-12.2-8.3c0.1,0,0.2,0,0.3,0c2.4-0.1,4.4,1.9,4.3,4.3
	c0,0,0.7,2.2,0.5,5C46.8,19.4,48,21.8,48,21.8z"/>
<linearGradient id="SVGID_18_" gradientUnits="userSpaceOnUse" x1="44.531" y1="15.3545" x2="34.7028" y2="17.2789">
	<stop  offset="0" style="stop-color:#095663"/>
	<stop  offset="1" style="stop-color:#308089"/>
</linearGradient>
<path class="st17" d="M43.3,13c0,1.4-0.8,2.6-1.9,3.3c-0.7,0.5-1.5,0.8-2.4,0.8c0.6,0,1.2,0.1,1.8,0.1c1.2,0.2,2.2,0.5,3,0.8
	C44,15.3,43.3,13,43.3,13z"/>
<linearGradient id="SVGID_19_" gradientUnits="userSpaceOnUse" x1="26.2968" y1="12.9168" x2="16.5043" y2="12.9168">
	<stop  offset="0" style="stop-color:#095663"/>
	<stop  offset="1" style="stop-color:#308089"/>
</linearGradient>
<path class="st18" d="M17,12.1L17,12.1c0.1,0.3,0.1,0.6,0.1,0.9v3.1v1c0,4.6,3.7,8.4,8.4,8.4v-8.4v-4.2c0-1.5-0.2-2.9-0.7-4.2
	c0,0,0,0,0,0c-1.3-3.6-4.1-6.4-7.7-7.7c-1.3-0.5-2.7-0.7-4.2-0.7c-1.6,0-3.1,0.3-4.4,0.8C15.6,0.8,17,12.1,17,12.1z"/>
<linearGradient id="SVGID_20_" gradientUnits="userSpaceOnUse" x1="15.3337" y1="5.028" x2="2.3887" y2="12.5958">
	<stop  offset="0" style="stop-color:#FF082C"/>
	<stop  offset="3.703256e-02" style="stop-color:#D11736"/>
	<stop  offset="8.022540e-02" style="stop-color:#A22541"/>
	<stop  offset="0.1262" style="stop-color:#79324A"/>
	<stop  offset="0.1742" style="stop-color:#563D52"/>
	<stop  offset="0.2249" style="stop-color:#3A4658"/>
	<stop  offset="0.279" style="stop-color:#244D5D"/>
	<stop  offset="0.3384" style="stop-color:#155260"/>
	<stop  offset="0.4069" style="stop-color:#0C5562"/>
	<stop  offset="0.5056" style="stop-color:#095663"/>
	<stop  offset="1" style="stop-color:#308089"/>
</linearGradient>
<path class="st19" d="M17,12.1L17,12.1c0,0-1.4-11.3-8.5-10.9C5,2.5,2.3,5.3,1.1,8.7c-0.5,1.3-0.7,2.7-0.7,4.2s0.3,2.9,0.7,4.2
	c0,0,0,0.1,0,0.1C5.4,8,13,8.7,13,8.7C15,8.8,16.6,10.3,17,12.1z"/>
<linearGradient id="SVGID_21_" gradientUnits="userSpaceOnUse" x1="8.0287" y1="19.2502" x2="16.0566" y2="19.2502">
	<stop  offset="0" style="stop-color:#095663"/>
	<stop  offset="1" style="stop-color:#308089"/>
</linearGradient>
<path class="st20" d="M11.4,25.4c0.3,0,0.5,0.1,0.8,0.1c0.2,0,0.5,0,0.7,0h3.1v-0.4v-4.9c0-1-0.4-1.8-1.1-2.4
	c-0.5-0.4-1.2-0.7-2-0.7h0c-2.2,0-4.2-1.8-4.3-4.1C8.7,13,6,18.5,11.4,25.4z"/>
<linearGradient id="SVGID_22_" gradientUnits="userSpaceOnUse" x1="11.5792" y1="15.1248" x2="5.1841" y2="21.6198">
	<stop  offset="0" style="stop-color:#095663"/>
	<stop  offset="1" style="stop-color:#308089"/>
</linearGradient>
<path class="st21" d="M13,8.7c0,0-7.7-0.7-11.9,8.5c1.6,4.4,5.5,7.6,10.3,8.2C6,18.5,8.7,13,8.7,13C8.7,10.6,10.6,8.7,13,8.7z"/>
</svg>
